<svg width="66" height="66" viewBox="0 0 66 66" fill="none" xmlns="http://www.w3.org/2000/svg">
<path fill-rule="evenodd" clip-rule="evenodd" d="M32.8 65.6C41.4991 65.6 49.8419 62.1443 55.9931 55.9931C62.1443 49.8419 65.6 41.4991 65.6 32.8C65.6 24.1009 62.1443 15.7581 55.9931 9.6069C49.8419 3.4557 41.4991 0 32.8 0C24.1009 0 15.7581 3.4557 9.6069 9.6069C3.4557 15.7581 0 24.1009 0 32.8C0 41.4991 3.4557 49.8419 9.6069 55.9931C15.7581 62.1443 24.1009 65.6 32.8 65.6ZM30.9755 21.1888C30.358 20.7768 29.6403 20.5402 28.8989 20.5042C28.1575 20.4682 27.4202 20.6341 26.7658 20.9843C26.1113 21.3345 25.5641 21.8558 25.1827 22.4926C24.8013 23.1293 24.5999 23.8577 24.6 24.6V41C24.5999 41.7423 24.8013 42.4707 25.1827 43.1074C25.5641 43.7442 26.1113 44.2655 26.7658 44.6157C27.4202 44.9659 28.1575 45.1318 28.8989 45.0958C29.6403 45.0598 30.358 44.8232 30.9755 44.4112L43.2755 36.2112C43.837 35.8368 44.2974 35.3295 44.6159 34.7345C44.9343 34.1394 45.1009 33.4749 45.1009 32.8C45.1009 32.1251 44.9343 31.4606 44.6159 30.8655C44.2974 30.2705 43.837 29.7632 43.2755 29.3888L30.9755 21.1888Z" fill="white"/>
</svg>
